<svg preserveAspectRatio="none" width="100%" height="100%" overflow="visible" style="display: block;" viewBox="0 0 24 24" fill="none" xmlns="http://www.w3.org/2000/svg">
<g id="icon/story-action-left">
<path id="Vector" d="M0.18164 12C1.12215 6.87976 6.60812 4 12.0003 4C17.3924 4 22.8784 6.87976 23.8189 12C22.8784 17.1202 17.3924 20 12.0003 20C6.60812 20 1.12215 17.1202 0.18164 12ZM12.0003 17C14.7617 17 17.0003 14.7614 17.0003 12C17.0003 9.23858 14.7617 7 12.0003 7C9.23884 7 7.00026 9.23858 7.00026 12C7.00026 14.7614 9.23884 17 12.0003 17ZM12.0003 15C10.3434 15 9.00026 13.6569 9.00026 12C9.00026 10.3431 10.3434 9 12.0003 9C13.6571 9 15.0003 10.3431 15.0003 12C15.0003 13.6569 13.6571 15 12.0003 15Z" fill="var(--fill-0, white)"/>
</g>
</svg>
