<svg preserveAspectRatio="none" width="100%" height="100%" overflow="visible" style="display: block;" viewBox="0 0 24 24" fill="none" xmlns="http://www.w3.org/2000/svg">
<g id="icon/cube-view-symbol">
<path id="Vector" d="M19.0073 6.78768C19.6726 6.40251 19.6726 5.44199 19.0073 5.05682L12.501 1.29007C12.1911 1.11064 11.8089 1.11064 11.499 1.29007L4.99276 5.05682C4.32747 5.44199 4.32747 6.40251 4.99276 6.78768L11.499 10.5544C11.8089 10.7339 12.1911 10.7339 12.501 10.5544L19.0073 6.78768ZM4.00103 8.52451C3.33437 8.13855 2.5 8.61961 2.5 9.38994V16.9235C2.5 17.2803 2.69015 17.6101 2.99896 17.7889L9.49896 21.5521C10.1656 21.938 11 21.457 11 20.6866V13.1531C11 12.7962 10.8099 12.4664 10.501 12.2876L4.00103 8.52451ZM13 20.6866C13 21.457 13.8344 21.938 14.501 21.5521L21.001 17.7889C21.3099 17.6101 21.5 17.2803 21.5 16.9235V9.38994C21.5 8.61961 20.6656 8.13855 19.999 8.52451L13.499 12.2876C13.1901 12.4664 13 12.7962 13 13.1531V20.6866Z" fill="var(--fill-0, white)"/>
</g>
</svg>
